<?xml version="1.0" encoding="UTF-8"?>
<svg id="Layer_1" xmlns="http://www.w3.org/2000/svg" viewBox="0 0 156.44 280.51">
  <defs>
    <style>
      .cls-1 {
        fill: #eab054;
      }

      .cls-2 {
        fill: #292929;
      }

      .cls-3 {
        fill: #f6f6f6;
      }

      .cls-4 {
        fill: #454545;
      }

      .cls-5 {
        font-family: MyriadPro-Regular, 'Myriad Pro';
        font-size: 9.97px;
      }

      .cls-6 {
        fill: #7e1319;
      }

      .cls-7 {
        fill: #141414;
      }

      .cls-8 {
        fill: #efc97b;
      }

      .cls-9 {
        letter-spacing: 0em;
      }

      .cls-10 {
        fill: #4a0509;
      }

      .cls-11 {
        letter-spacing: .02em;
      }

      .cls-12 {
        letter-spacing: 0em;
      }
    </style>
  </defs>
  <g>
    <path class="cls-8" d="M36.8,64.93c2.38-23.05.81-34.99-1.22-41.69-.68-2.25-3.22-9.88.04-12.84.87-.79,1.82-1.06,3.62-1.2,7.88-.59,15.78-.55,23.67-.18,1.4.07,2.33.25,3.19.98,3.39,2.87.52,11.32-.2,13.65-2.2,7.13-3.46,19.34.68,41.58-9.93-.11-19.85-.21-29.78-.32Z"/>
    <path class="cls-2" d="M13.88,108.77c.96-9.43,5.11-16.23,6.63-18.54.01-.02.02-.02.05-.07.8-1.23,8.44-12.84,12.4-16.66,0,0,.02-.02.03-.03,0,0,0,0,0,0,.6-.55,2-1.98,2.92-4.24.67-1.64.86-3.18.89-4.3,9.93.11,19.85.21,29.78.32.03.93.18,2.4.84,3.99,1.2,2.9,3.37,4.4,4.07,4.91,4.57,3.32,11.44,10.85,15.17,16.54,0,0,5.64,8.65,6.51,17.89.13,1.37.16,2.74.16,2.74.02.97,0,1.68,0,1.75-.11,4.35.56,76.7-2.21,139.99-.05,1.04-.2,3.56-1.78,5.44,0,0-.86,1.02-2.17,1.63-7.26,3.37-54.86,4.7-67.96.3-.91-.31-2.64-.97-3.86-2.74-1.47-2.12-1.42-4.7-1.41-5.52.51-46.46-.34-92.93-.24-139.4,0-.48,0-1.98.2-4Z"/>
    <path class="cls-1" d="M36.8,64.93c2.13-25.48.73-36.33-1.22-41.31,0,0-3.36-8.59-.57-12.56.4-.58.94-.99.94-.99.54-.42,1.11-.66,1.64-.8.51-.14.92-.17,1.12-.18.74-.04,4.08-.16,8.64-.27-.36,18.71-.72,37.42-1.07,56.13-3.16,0-6.32-.01-9.48-.02Z"/>
    <path class="cls-7" d="M13.88,108.77s.99-9.95,6.63-18.54c.01-.02.02-.02.05-.07.8-1.23,8.44-12.84,12.4-16.66,0,0,.02-.02.03-.03,0,0,0,0,0,0,.6-.55,2-1.98,2.92-4.24.67-1.64.86-3.18.89-4.3,3.16,0,6.32.01,9.48.02l-1.43,198.21c-.9,0-19.13-.23-25.65-2.73-2.53-.97-3.63-2.39-3.86-2.74-1.47-2.12-1.42-4.7-1.41-5.52.51-46.46-.31-92.93-.24-139.4,0-.48,0-1.99.2-4Z"/>
    <path class="cls-3" d="M93.33,134.25H13.66c-.11,2.82-.25,7.11-.36,12.35-.17,8.05-.37,18.27.06,31.23.11,3.18.29,7.76.63,13.31,26.29,0,52.58,0,78.86,0,.08-1.41.2-3.74.33-6.63.42-9.36,1.03-23.4.51-40.89-.06-2.14-.17-5.39-.37-9.38Z"/>
    <path class="cls-4" d="M67.23,82.27c.41-.03,2.35-.12,4.54.7,7.07,2.65,10.58,12.58,11.73,15.94,3.45,10.12,3.84,21.14,2.18,21.51-1.86.41-2.25-13.42-13.52-23.49-6.33-5.66-13.15-7.48-12.6-10.54.4-2.24,4.51-3.92,7.66-4.12Z"/>
    <path class="cls-4" d="M88.29,245.1c.11,4.57.14,6.91-1.32,9.04-1.2,1.76-3.21,3.09-8.19,4.17-9.92,2.16-20.23.86-20.26-.56-.04-1.73,15.23.59,22.62-8.74,4.66-5.89,4.05-13.71,5.41-13.6,1.47.11,1.72,9.08,1.73,9.7Z"/>
  </g>
  <g>
    <path class="cls-6" d="M85.26,70.9c2.38-23.05.81-34.99-1.22-41.69-.68-2.25-3.22-9.88.04-12.84.87-.79,1.82-1.06,3.62-1.2,7.88-.59,15.78-.55,23.67-.18,1.4.07,2.33.25,3.19.98,3.39,2.87.52,11.32-.2,13.65-2.2,7.13-3.46,19.34.68,41.58-9.93-.11-19.85-.21-29.78-.32Z"/>
    <path class="cls-2" d="M62.33,114.74c.96-9.43,5.11-16.23,6.63-18.54.01-.02.02-.02.05-.07.8-1.23,8.44-12.84,12.4-16.66,0,0,.02-.02.03-.03,0,0,0,0,0,0,.6-.55,2-1.98,2.92-4.24.67-1.64.86-3.18.89-4.3,9.93.11,19.85.21,29.78.32.03.93.18,2.4.84,3.99,1.2,2.9,3.37,4.4,4.07,4.91,4.57,3.32,11.44,10.85,15.17,16.54,0,0,5.64,8.65,6.51,17.89.13,1.37.16,2.74.16,2.74.02.97,0,1.68,0,1.75-.11,4.35.56,76.7-2.21,139.99-.05,1.04-.2,3.56-1.78,5.44,0,0-.86,1.02-2.17,1.63-7.26,3.37-54.86,4.7-67.96.3-.91-.31-2.64-.97-3.86-2.74-1.47-2.12-1.42-4.7-1.41-5.52.51-46.46-.34-92.93-.24-139.4,0-.48,0-1.98.2-4Z"/>
    <path class="cls-10" d="M85.26,70.9c2.13-25.48.73-36.33-1.22-41.31,0,0-3.36-8.59-.57-12.56.4-.58.94-.99.94-.99.54-.42,1.11-.66,1.64-.8.51-.14.92-.17,1.12-.18.74-.04,4.08-.16,8.64-.27-.36,18.71-.72,37.42-1.07,56.13-3.16,0-6.32-.01-9.48-.02Z"/>
    <path class="cls-7" d="M62.33,114.74s.99-9.95,6.63-18.54c.01-.02.02-.02.05-.07.8-1.23,8.44-12.84,12.4-16.66,0,0,.02-.02.03-.03,0,0,0,0,0,0,.6-.55,2-1.98,2.92-4.24.67-1.64.86-3.18.89-4.3,3.16,0,6.32.01,9.48.02l-1.43,198.21c-.9,0-19.13-.23-25.65-2.73-2.53-.97-3.63-2.39-3.86-2.74-1.47-2.12-1.42-4.7-1.41-5.52.51-46.46-.31-92.93-.24-139.4,0-.48,0-1.99.2-4Z"/>
    <path class="cls-3" d="M141.78,140.22H62.12c-.11,2.82-.25,7.11-.36,12.35-.17,8.05-.37,18.27.06,31.23.11,3.18.29,7.76.63,13.31,26.29,0,52.58,0,78.86,0,.08-1.41.2-3.74.33-6.63.42-9.36,1.03-23.4.51-40.89-.06-2.14-.17-5.39-.37-9.38Z"/>
    <path class="cls-4" d="M115.69,88.24c.41-.03,2.35-.12,4.54.7,7.07,2.65,10.58,12.58,11.73,15.94,3.45,10.12,3.84,21.14,2.18,21.51-1.86.41-2.25-13.42-13.52-23.49-6.33-5.66-13.15-7.48-12.6-10.54.4-2.24,4.51-3.92,7.66-4.12Z"/>
    <path class="cls-4" d="M136.75,251.08c.11,4.57.14,6.91-1.32,9.04-1.2,1.76-3.21,3.09-8.19,4.17-9.92,2.16-20.23.86-20.26-.56-.04-1.73,15.23.59,22.62-8.74,4.66-5.89,4.05-13.71,5.41-13.6,1.47.11,1.72,9.08,1.73,9.7Z"/>
    <text class="cls-5" transform="translate(83.6 168.21)"><tspan x="0" y="0">BLAND</tspan><tspan class="cls-11" x="29.42" y="0">E</tspan><tspan class="cls-9" x="34.49" y="0">T </tspan><tspan x="0" y="11.97">VIN</tspan><tspan class="cls-12" x="14.51" y="11.97">K</tspan><tspan x="20.02" y="11.97">ASSE</tspan></text>
  </g>
</svg>