<?xml version="1.0" encoding="UTF-8"?>
<svg id="Layer_1" xmlns="http://www.w3.org/2000/svg" viewBox="0 0 113.52 280.51">
  <defs>
    <style>
      .cls-1 {
        fill: #eab054;
      }

      .cls-2 {
        fill: #292929;
      }

      .cls-3 {
        fill: #f6f6f6;
      }

      .cls-4 {
        fill: #454545;
      }

      .cls-5 {
        fill: #141414;
      }

      .cls-6 {
        font-family: MyriadPro-Regular, 'Myriad Pro';
        font-size: 9.93px;
      }

      .cls-7 {
        fill: #efc97b;
      }

      .cls-8 {
        letter-spacing: 0em;
      }
    </style>
  </defs>
  <path class="cls-7" d="M40.13,69.53c2.37-22.94.8-34.83-1.21-41.49-.68-2.24-3.21-9.84.04-12.78.87-.78,1.81-1.06,3.6-1.19,7.85-.59,15.71-.55,23.56-.18,1.39.06,2.32.25,3.17.97,3.37,2.86.52,11.27-.2,13.59-2.19,7.1-3.45,19.25.68,41.39-9.88-.1-19.76-.21-29.64-.31Z"/>
  <path class="cls-2" d="M17.32,113.17c.96-9.39,5.09-16.15,6.6-18.45.01-.02.02-.02.05-.07.8-1.22,8.4-12.78,12.34-16.58,0,0,.02-.02.03-.03,0,0,0,0,0,0,.6-.55,1.99-1.97,2.9-4.22.67-1.63.85-3.17.89-4.28,9.88.1,19.76.21,29.64.31.03.92.18,2.39.84,3.97,1.2,2.89,3.36,4.38,4.05,4.88,4.55,3.31,11.39,10.8,15.1,16.47,0,0,5.62,8.61,6.48,17.8.13,1.37.16,2.73.16,2.73.02.96,0,1.67,0,1.74-.11,4.33.56,76.35-2.2,139.34-.05,1.04-.2,3.54-1.77,5.42,0,0-.85,1.01-2.16,1.62-7.23,3.35-54.61,4.68-67.64.3-.9-.3-2.63-.97-3.85-2.72-1.47-2.11-1.42-4.67-1.41-5.49.51-46.24-.34-92.5-.24-138.74,0-.47,0-1.98.2-3.98Z"/>
  <path class="cls-1" d="M40.13,69.53c2.12-25.36.72-36.16-1.22-41.11,0,0-3.35-8.55-.57-12.51.4-.57.94-.99.94-.99.54-.41,1.11-.66,1.63-.8.51-.14.92-.17,1.12-.18.74-.04,4.06-.16,8.6-.26-.36,18.62-.71,37.24-1.07,55.86-3.14,0-6.29-.01-9.43-.02Z"/>
  <path class="cls-5" d="M17.32,113.17s.98-9.9,6.6-18.45c.01-.02.02-.02.05-.07.8-1.22,8.4-12.78,12.34-16.58,0,0,.02-.02.03-.03,0,0,0,0,0,0,.6-.55,1.99-1.97,2.9-4.22.67-1.63.85-3.17.89-4.28,3.14,0,6.29.01,9.43.02-.48,65.76-.95,131.52-1.43,197.28-.9,0-19.04-.23-25.53-2.72-2.52-.96-3.61-2.38-3.85-2.72-1.47-2.11-1.42-4.67-1.41-5.49.5-46.25-.31-92.5-.24-138.74,0-.48,0-1.98.2-3.98Z"/>
  <path class="cls-3" d="M96.39,138.52H17.11c-.11,2.81-.25,7.08-.36,12.29-.17,8.02-.37,18.18.06,31.09.1,3.16.29,7.72.63,13.25,26.17,0,52.33,0,78.5,0,.08-1.4.2-3.73.33-6.6.42-9.32,1.02-23.29.51-40.7-.06-2.13-.17-5.37-.37-9.34Z"/>
  <path class="cls-4" d="M70.42,86.78c.41-.03,2.34-.12,4.52.69,7.03,2.64,10.53,12.52,11.67,15.87,3.43,10.07,3.83,21.04,2.17,21.41-1.85.41-2.24-13.36-13.45-23.38-6.3-5.63-13.08-7.45-12.54-10.49.4-2.23,4.49-3.9,7.63-4.1Z"/>
  <path class="cls-4" d="M91.39,248.86c.11,4.55.14,6.87-1.31,9-1.2,1.75-3.19,3.07-8.15,4.15-9.87,2.15-20.13.86-20.17-.56-.04-1.73,15.16.59,22.51-8.7,4.64-5.86,4.03-13.64,5.39-13.54,1.46.11,1.71,9.04,1.73,9.65Z"/>
  <text class="cls-6" transform="translate(24.03 171.52)"><tspan x="0" y="0">HVIDVINS</tspan><tspan class="cls-8" x="40.34" y="0">K</tspan><tspan x="45.82" y="0">ASSE</tspan></text>
</svg>