<?xml version="1.0" encoding="UTF-8"?>
<svg id="Layer_1" xmlns="http://www.w3.org/2000/svg" viewBox="0 0 113.52 280.51">
  <defs>
    <style>
      .cls-1 {
        fill: #292929;
      }

      .cls-2 {
        fill: #f6f6f6;
      }

      .cls-3 {
        fill: #454545;
      }

      .cls-4 {
        font-family: MyriadPro-Regular, 'Myriad Pro';
        font-size: 10.02px;
      }

      .cls-5 {
        fill: #7e1319;
      }

      .cls-6 {
        fill: #141414;
      }

      .cls-7 {
        letter-spacing: 0em;
      }

      .cls-8 {
        fill: #4a0509;
      }

      .cls-9 {
        letter-spacing: .01em;
      }
    </style>
  </defs>
  <path class="cls-5" d="M39.97,66.51c2.39-23.16.81-35.17-1.23-41.9-.69-2.26-3.24-9.93.04-12.9.87-.79,1.83-1.07,3.64-1.2,7.92-.59,15.86-.55,23.79-.18,1.4.07,2.35.26,3.2.98,3.41,2.89.52,11.38-.2,13.72-2.21,7.17-3.48,19.44.68,41.79-9.98-.11-19.95-.21-29.93-.32Z"/>
  <path class="cls-1" d="M16.93,110.57c.97-9.48,5.14-16.31,6.66-18.63.01-.02.02-.02.05-.07.81-1.23,8.48-12.91,12.46-16.74,0,0,.02-.02.03-.03,0,0,0,0,0,0,.61-.55,2.01-1.99,2.93-4.26.67-1.65.86-3.2.9-4.32,9.98.11,19.95.21,29.93.32.03.93.19,2.41.84,4.01,1.21,2.92,3.39,4.42,4.09,4.93,4.59,3.34,11.5,10.9,15.25,16.63,0,0,5.67,8.7,6.54,17.98.13,1.38.16,2.76.16,2.76.02.97,0,1.69,0,1.76-.11,4.38.56,77.09-2.22,140.7-.05,1.05-.2,3.58-1.79,5.47,0,0-.86,1.02-2.18,1.63-7.3,3.39-55.14,4.72-68.31.3-.91-.31-2.65-.98-3.88-2.75-1.48-2.13-1.43-4.72-1.42-5.55.51-46.7-.34-93.4-.24-140.1,0-.48,0-1.99.2-4.02Z"/>
  <path class="cls-8" d="M39.97,66.51c2.14-25.61.73-36.51-1.23-41.51,0,0-3.38-8.63-.57-12.63.41-.58.95-1,.95-1,.54-.42,1.12-.66,1.65-.81.51-.14.93-.17,1.13-.18.74-.05,4.1-.16,8.68-.27-.36,18.8-.72,37.61-1.08,56.41-3.18,0-6.35-.01-9.53-.02Z"/>
  <path class="cls-6" d="M16.93,110.57s.99-10,6.66-18.63c.01-.02.02-.02.05-.07.81-1.23,8.48-12.91,12.46-16.74,0,0,.02-.02.03-.03,0,0,0,0,0,0,.61-.55,2.01-1.99,2.93-4.26.67-1.65.86-3.2.9-4.32,3.18,0,6.35.01,9.53.02-.48,66.4-.96,132.81-1.44,199.21-.91,0-19.23-.23-25.78-2.75-2.54-.97-3.65-2.41-3.88-2.75-1.48-2.13-1.43-4.72-1.42-5.55.51-46.7-.31-93.4-.24-140.1,0-.48,0-2,.2-4.02Z"/>
  <path class="cls-2" d="M96.78,136.18H16.72c-.11,2.83-.25,7.15-.36,12.41-.17,8.09-.37,18.36.06,31.39.11,3.2.29,7.8.63,13.38,26.42,0,52.84,0,79.26,0,.08-1.41.2-3.76.33-6.66.42-9.41,1.03-23.51.52-41.09-.06-2.15-.17-5.42-.38-9.43Z"/>
  <path class="cls-3" d="M70.56,83.93c.41-.03,2.37-.12,4.57.7,7.1,2.66,10.63,12.64,11.79,16.02,3.47,10.17,3.86,21.25,2.19,21.62-1.87.41-2.26-13.49-13.58-23.61-6.37-5.69-13.21-7.52-12.66-10.6.4-2.25,4.54-3.94,7.7-4.14Z"/>
  <path class="cls-3" d="M91.73,247.59c.11,4.6.14,6.94-1.32,9.08-1.21,1.76-3.22,3.1-8.23,4.19-9.97,2.17-20.33.87-20.36-.57-.04-1.74,15.31.6,22.73-8.79,4.68-5.92,4.07-13.77,5.44-13.67,1.47.11,1.73,9.13,1.74,9.74Z"/>
  <text class="cls-4" transform="translate(23.71 169.5)"><tspan class="cls-7" x="0" y="0">R</tspan><tspan x="5.42" y="0">ØDVINS</tspan><tspan class="cls-9" x="38.53" y="0">K</tspan><tspan x="44.07" y="0">ASSE</tspan></text>
</svg>